<?xml version="1.0" encoding="UTF-8" standalone="no"?>
<!-- Created with Inkscape (http://www.inkscape.org/) -->

<svg
   width="14.214305mm"
   height="3.8459218mm"
   viewBox="0 0 14.214305 3.8459218"
   version="1.1"
   id="svg1"
   xmlns="http://www.w3.org/2000/svg"
   xmlns:svg="http://www.w3.org/2000/svg">
  <defs
     id="defs1">
    <linearGradient
       id="swatch91">
      <stop
         style="stop-color:#000000;stop-opacity:1;"
         offset="0"
         id="stop91" />
    </linearGradient>
  </defs>
  <g
     id="layer1"
     style="display:inline"
     transform="translate(-13.905766,-65.208603)">
    <rect
       style="display:none;fill:#95217b;stroke:#141bb5;stroke-width:0.0410001;stroke-linecap:round;stroke-linejoin:round"
       id="rect12"
       width="10.664055"
       height="0.70158249"
       x="17.972204"
       y="67.375305" />
    <path
       id="path12"
       style="font-size:3.175px;font-family:'Goudy Mediaeval';-inkscape-font-specification:'Goudy Mediaeval';display:inline;opacity:1;fill:#95d600;fill-opacity:1;stroke:#000000;stroke-width:0.0372094;stroke-linecap:round;stroke-linejoin:round;stroke-dasharray:none;stroke-opacity:1;paint-order:normal"
       d="m 18.253116,65.227189 c 0,0 -0.214836,0.088 -0.427448,0.271383 -0.278137,0.239901 -0.782535,0.773462 -0.782535,0.773462 -0.02754,0.01793 -0.05253,0.02727 -0.07547,0.02727 -0.05505,0 -0.222988,-0.07348 -0.50291,-0.219967 -0.284509,-0.14948 -0.49141,-0.212733 -0.753055,-0.223991 -0.349201,-0.01502 -0.753003,-0.0055 -1.027019,0.211513 -0.245213,0.194178 -0.394899,0.579164 -0.394899,0.851215 0,0.448437 0.236488,0.672421 0.70914,0.672421 0.100956,0 0.406007,-0.04489 0.915371,-0.134574 0.509361,-0.09268 0.814414,-0.139044 0.915369,-0.139044 0.128488,0 0.239015,0.04193 0.330794,0.125632 0.279764,0.255155 0.106324,0.595727 -0.227421,0.778827 -0.08719,0.04784 -0.254596,0.07153 -0.502394,0.07153 -0.371697,0 -0.768685,-0.0794 -1.190859,-0.237851 L 14.5446,67.795259 c -0.04874,0.440467 -0.361102,0.83553 -0.620239,1.240669 l 0.682263,-0.711764 c 0.07343,0.02392 0.146763,0.04807 0.220185,0.07198 0.07342,0.02093 0.146765,0.04316 0.220185,0.06706 0.192732,0.05382 0.772135,0.192661 1.162311,0.163602 0.376046,-0.02801 0.676099,-0.09168 1.084506,-0.321874 0.403819,-0.227209 0.954827,-1.02114 0.582508,-0.768097 h -5.18e-4 c -0.1183,0 -0.01595,-0.198879 -0.04807,-0.273619 -0.03213,-0.07474 -0.08687,-0.137399 -0.16488,-0.188223 -0.07343,-0.05381 -0.170136,-0.09722 -0.289445,-0.130103 -0.119312,-0.03288 -0.268123,-0.05999 -0.447089,-0.08092 0.0872,-0.182364 0.827293,-1.096967 0.905549,-1.186572 0.07317,-0.08379 0.219336,-0.282801 0.421246,-0.450218 z m 2.276277,0.0997 c -0.0047,4.67e-4 -0.01269,0.0026 -0.02377,0.0058 -0.256168,0.05128 -0.384032,0.08756 -0.384032,0.109536 0,0.01282 0.04195,0.05596 0.126632,0.129209 0.03388,0.0293 0.05117,0.09636 0.05117,0.200742 v 1.535301 c 0,0.02563 -0.0011,0.205979 0.0031,0.211473 h 5.16e-4 5.17e-4 v -4.5e-4 l 5.17e-4,-4.47e-4 c 0.01013,-0.01186 0.06459,-0.144355 0.106991,-0.168105 0.02665,-0.01493 0.01309,-0.0059 0.07236,-0.04247 L 20.7563,67.121042 c 0.03408,-0.02329 -0.038,-0.06269 -0.05065,-0.05499 l -0.139553,0.08495 v -1.722184 c 0,-0.06776 -0.01185,-0.101936 -0.03515,-0.101936 h -5.17e-4 -5.17e-4 z m -0.52255,0.456477 c -0.0049,5.99e-4 -0.0099,0.0029 -0.01499,0.0067 -0.149193,0.114643 -0.09966,8.8e-5 -0.149375,0 -0.0012,0 -0.0025,-10e-5 -0.0036,0 -0.01748,0.0015 -0.03203,0.01441 -0.04393,0.03845 -0.01059,0.02563 -0.03082,0.05201 -0.03153,0.08271 -0.004,0.173521 -0.05158,0.165148 -0.06616,0.17034 -2.47e-4,1.07e-4 -0.0013,7.74e-4 -0.0015,8.65e-4 l -5.17e-4,4.47e-4 -5.17e-4,4.47e-4 -5.17e-4,4.47e-4 c -1.19e-4,1.97e-4 -4.25e-4,0.0011 -5.16e-4,0.0014 -1.24e-4,5.03e-4 0,0.0011 0,0.0018 0,0.0238 0.0232,0.03577 0.06977,0.03577 h 5.16e-4 5.17e-4 l 5.17e-4,-4.47e-4 h 5.17e-4 c 0.0097,-0.0026 0.02957,-0.01822 0.0584,-0.04649 l 0.148857,-0.142621 c 0.04925,-0.04719 0.07339,-0.08435 0.07339,-0.109984 -3e-6,-0.01786 -0.01807,-0.04238 -0.03928,-0.03979 z m -1.971328,-0.01829 c -0.01748,0.0015 -0.03204,0.01441 -0.04394,0.03845 -0.01059,0.02563 -0.02146,0.05341 -0.03205,0.08271 -0.04658,0.09706 -0.06977,0.155561 -0.06977,0.175705 0,0.0238 0.0232,0.03577 0.06977,0.03577 2.65e-4,0 0.09187,-0.04647 0.09252,-0.04649 h 5.16e-4 v -4.48e-4 h 5.17e-4 v -4.46e-4 h -5.17e-4 v -4.47e-4 -4.48e-4 c -0.0057,-0.0085 -0.07705,-0.05198 -0.04497,-0.07377 l 0.12043,-0.08182 c 0.05779,-0.03926 0.114228,-0.07004 0.114228,-0.09568 0,-0.02197 -0.01776,-0.03308 -0.05375,-0.03308 h -0.149374 c -0.0012,0 -0.0025,-1e-4 -0.0036,0 z m -2.623611,0.341128 c 0.165197,0 0.355461,0.07496 0.571136,0.224439 l 0.206747,0.143515 c 0.06883,0.04783 0.140043,0.09568 0.213466,0.143516 0.184987,0.130847 0.290686,0.206626 0.220185,0.282559 -0.0092,0.01196 -0.0299,0.02382 -0.06202,0.03577 -0.02754,0.01197 -0.07111,0.02382 -0.130768,0.03577 -0.05505,0.009 -0.128404,0.02082 -0.220184,0.03577 l -0.695185,0.112219 c -0.05505,0.01196 -0.117238,0.01788 -0.186073,0.01788 -0.293684,0 -0.440369,-0.128286 -0.440369,-0.38539 0,-0.4305 0.174316,-0.646043 0.523069,-0.646043 z m 11.25163,0.04381 v 4.47e-4 h -5.17e-4 -5.17e-4 v 4.47e-4 4.47e-4 h -5.17e-4 v 4.47e-4 l 5.17e-4,4.47e-4 v 4.47e-4 c 2.84e-4,6.89e-4 8.34e-4,0.0017 0.0015,0.0027 0.03136,0.03945 -0.129683,0.04873 -0.18142,0.07243 -0.01693,0.0092 -0.04014,0.02282 -0.06977,0.04113 -0.02964,0.01832 -0.06568,0.04309 -0.108026,0.07422 -0.05292,0.03662 -0.09539,0.102386 -0.127149,0.197613 -0.02753,0.08241 -0.04135,0.173388 -0.04135,0.272277 0,0.175802 0.04246,0.310325 0.127149,0.40372 0.08469,0.0934 0.203174,0.139939 0.355604,0.139939 0.242328,-0.03225 0.281158,-0.152073 0.473967,-0.319668 0.03164,-0.02749 0.04538,-0.04285 0.04652,-0.04873 v -4.46e-4 -4.48e-4 -4.47e-4 l -5.17e-4,-4.47e-4 -5.18e-4,-4.48e-4 h -5.17e-4 -5.17e-4 -5.16e-4 c -0.03223,-0.0013 -0.325675,0.183217 -0.381447,0.206109 -0.07123,0.02924 -0.15549,-0.03503 -0.225354,-0.104619 -0.07621,-0.07325 -0.114228,-0.159081 -0.114228,-0.25797 0,-0.03114 0.003,-0.05976 0.0093,-0.08539 0,0 0.339228,-0.176436 0.467247,-0.241875 0.128019,-0.06544 0.185832,-0.167238 0.300299,-0.151563 0.05086,0.0069 0.06129,0.05834 0.102856,0.0997 0.02117,0.0293 0.03153,0.07755 0.03153,0.145304 0.02699,0.345404 0.122465,0.403825 -0.190228,0.590899 v 4.47e-4 c -1.29e-4,2.12e-4 -4.19e-4,7.37e-4 -5.17e-4,8.66e-4 0.271849,0.0285 0.468263,0.03148 0.405563,0.196668 0,0 0.253299,-0.163266 0.269424,-0.29561 0.01933,-0.158664 -0.196015,-0.265081 -0.228457,-0.421591 -0.01361,-0.06568 0.01765,-0.200462 0.01765,-0.200462 0.110089,-0.08241 0.173271,-0.123844 0.190208,-0.123844 h 5.16e-4 5.17e-4 l 5.17e-4,4.47e-4 h 5.17e-4 l 5.16e-4,4.48e-4 5.17e-4,4.47e-4 c 0.02238,0.01576 0.0681,0.182342 0.18142,0.122502 0.106851,-0.05643 0.141308,-0.224556 0.119397,-0.285243 0,-10e-4 -3.75e-4,-0.0025 -5.18e-4,-0.0031 v -4.48e-4 h -5.17e-4 v -4.46e-4 h -5.16e-4 -5.17e-4 l -5.17e-4,4.46e-4 c -0.009,0.0055 -0.03876,0.05583 -0.07907,0.03308 -0.0614,-0.03296 -0.09398,-0.04918 -0.09821,-0.04918 -0.0015,0 -0.0031,-1.22e-4 -0.0047,0 -0.0232,0.0018 -0.05661,0.01731 -0.100271,0.04649 l -0.216051,0.151117 c -0.09931,0.06946 -0.04948,-0.147102 -0.0796,-0.173918 -5.07e-4,-3.83e-4 -0.002,-10e-4 -0.0026,-0.0013 -6.94e-4,-2.01e-4 -0.0023,-3.84e-4 -0.0031,-4.47e-4 -0.02751,0 -0.09319,0.01196 -0.196925,0.03577 -0.07459,0.01825 -0.111516,0.04187 -0.137487,0.05142 l -0.195892,0.07198 c -0.132676,0.04875 -0.213526,-0.104027 -0.2605,-0.164976 -0.01011,-0.01312 -0.0443,-0.02672 -0.05375,-0.02817 z m -7.840832,0.0014 c -0.148196,0 -0.273108,0.0504 -0.374728,0.151116 -0.0995,0.102551 -0.149374,0.227668 -0.149374,0.376001 0,0.108045 0.02221,0.193471 0.06667,0.255735 0.04658,0.06043 0.125085,0.11253 0.235174,0.15648 -0.07198,0.04761 -0.13568,0.104415 -0.190724,0.170341 -0.05504,0.06409 -0.09459,0.116537 -0.09459,0.142174 0,0.0022 0.0013,0.0046 0.0021,0.0058 v 4.46e-4 l 5.17e-4,4.48e-4 5.16e-4,4.47e-4 h 5.18e-4 c 2.54e-4,1.03e-4 0.0013,3.76e-4 0.0016,4.47e-4 2.5e-4,3.2e-5 0.0013,-1.2e-5 0.0016,0 0.01746,-4.97e-4 0.06455,-0.03834 0.09355,-0.02236 0.03616,0.01993 0.02825,0.08345 0.08012,0.10909 -0.184186,0.159321 -0.288928,0.35218 -0.288928,0.4529 0,0.0934 0.05577,0.173267 0.167982,0.239192 0.110088,0.06776 0.246859,0.10149 0.409874,0.10149 0.220176,0 0.407286,-0.05595 0.561834,-0.167659 0.154543,-0.111739 0.248612,-0.240866 0.248612,-0.398355 0,-0.108045 -0.01438,-0.220976 -0.08425,-0.292396 -0.06986,-0.07142 -0.210524,-0.117424 -0.314255,-0.115348 -0.186244,0.0037 -0.232499,0.126608 -0.409874,0.07735 -0.03386,-0.0094 -0.217601,-0.093 -0.217601,-0.093 0,0 0.04351,-0.08104 0.07907,-0.112219 0.03073,-0.02693 0.06032,-0.03472 0.111126,-0.06035 0.05292,-0.02747 0.119575,-0.0595 0.200028,-0.09612 0.205357,-0.09523 0.308052,-0.266482 0.308052,-0.513704 V 66.4259 h 0.253781 l 0.01964,-0.093 c 0.02097,0.02199 0.05489,0.05285 0.101306,0.093 0.03388,0.0293 0.05169,0.09636 0.05065,0.200742 l -0.0088,0.878081 c -2e-6,2.01e-4 -1.4e-5,0.0012 0,0.0013 l 5.17e-4,4.47e-4 v 4.47e-4 h 5.16e-4 5.17e-4 5.18e-4 5.17e-4 l 5.16e-4,-4.47e-4 c 0.02083,-0.01142 0.159566,-0.202614 0.22277,-0.241428 0.0632,-0.03881 0.121787,-0.0571 0.240342,-0.143962 -0.01905,-0.03662 -0.03636,-0.05499 -0.05117,-0.05499 l -0.139555,0.08495 v -0.8678 c 0,-0.06776 -0.01133,-0.101935 -0.03463,-0.101935 -0.0043,0 -0.01317,0.0021 -0.02585,0.0058 -0.183539,0.03674 -0.300983,0.06593 -0.353019,0.08763 h -5.17e-4 l -0.351469,-0.0054 c -0.0254,-0.02564 -0.07181,-0.05126 -0.139554,-0.0769 -0.08045,-0.02747 -0.157459,-0.04113 -0.231556,-0.04113 z m 6.846899,0.01431 c 0.0046,-0.01778 -0.193052,0.01837 -0.248096,0.04515 -0.06774,0.03113 -0.166841,0.06613 -0.215534,0.124737 -0.04658,0.0586 -0.06193,0.113332 -0.08735,0.199402 -0.0251,0.08326 0.0356,0.234724 4.68e-4,0.343811 -0.01734,0.05385 -0.05646,0.100675 -0.09924,0.137703 -0.06582,0.05697 -0.197669,0.102363 -0.231556,0.120714 0.01481,-0.120864 0.01843,-0.17454 0.02481,-0.262441 0.0085,-0.08973 0.0124,-0.165752 0.0124,-0.228015 0,-0.133684 0.01714,-0.225983 -0.03833,-0.316499 -0.05547,-0.09052 -0.109801,-0.144111 -0.344365,-0.121981 -0.06605,0.0062 -0.165441,0.04469 -0.271146,0.108976 -0.07609,0.04628 -0.121131,0.06975 -0.133868,0.06975 h -5.18e-4 -5.17e-4 -5.16e-4 l -5.17e-4,-4.47e-4 h -5.17e-4 v -4.47e-4 l -5.17e-4,-4.47e-4 c -0.05716,-0.05494 -0.11666,-0.177974 -0.187105,-0.142621 l -0.219152,0.109983 c -0.09365,0.047 0.126777,0.130253 0.149374,0.181071 0.01647,0.03704 0.09797,0.280623 0.116812,0.426969 0.008,0.06188 0.01447,0.08978 -0.0021,0.187144 -0.09699,0.569916 0.10352,0.228186 0.167684,-0.04253 0.06649,-0.280523 0.0021,-0.296836 -0.0034,-0.626577 0.03913,-0.0629 0.206747,-0.118031 0.206747,-0.118031 0.09315,0 0.124676,0.07629 0.186072,0.178835 0.06139,0.102551 0.09339,0.175276 0.07753,0.317879 l -0.04135,0.371978 c -0.004,0.0356 -0.03557,0.143539 -0.0398,0.161846 0.124208,0.02259 0.257823,-0.0586 0.379379,-0.126973 0.05504,-0.03479 0.102947,-0.06553 0.143172,-0.09299 0.02549,-0.01741 0.09827,-0.07907 0.15506,-0.126973 0.01829,0.07512 0.05225,0.13851 0.111643,0.195377 0.0904,0.08655 0.213829,0.131891 0.374728,0.131891 0.09739,0 0.183302,-0.02091 0.257399,-0.06304 0.02541,-0.01465 0.05796,-0.04027 0.09821,-0.0769 0.04234,-0.03662 0.06819,-0.06076 0.08839,-0.09478 0.02019,-0.03403 0.01527,-0.03496 0.05582,-0.103278 0.0016,-0.0027 0.0027,-0.0051 0.0031,-0.0062 v -4.47e-4 -4.48e-4 h -5.17e-4 -5.17e-4 v 4.48e-4 c -0.0097,0.0056 -0.07783,0.08249 -0.149375,0.132337 -0.0864,0.06021 -0.117001,0.07064 -0.152992,0.07064 -0.113707,0 -0.147727,-0.03122 -0.19641,-0.0532 -0.04658,-0.0238 -0.08806,-0.05583 -0.124047,-0.09612 -0.03388,-0.04029 -0.06002,-0.08813 -0.07908,-0.143069 -0.01905,-0.05677 -0.02895,-0.11783 -0.02895,-0.183753 0,-0.164815 0.0089,-0.275013 0.02585,-0.329951 0.0254,-0.08241 0.08367,-0.123396 0.1747,-0.123396 0.0614,0 0.129034,0.04014 0.203128,0.120713 0.07198,0.07875 0.237658,0.116767 0.239775,0.116767 0.01481,0 0.0499,-0.105925 0.0889,-0.15137 0.04905,-0.05717 0.102832,-0.119364 0.178321,-0.147734 0.160404,-0.06029 -0.701186,0.231317 -0.622175,-0.07344 z m -7.527611,0.01565 c -0.0048,5.84e-4 -0.01196,0.003 -0.0217,0.0058 -0.256168,0.05128 -0.384032,0.08756 -0.384032,0.109537 0,0.01282 0.04195,0.05596 0.126632,0.129208 0.03388,0.0293 0.05117,0.09636 0.05117,0.200743 l 0.01462,0.653094 c 0,0.02563 -0.0039,0.102136 3.54e-4,0.107643 0.0042,0.0054 0.0385,-0.0021 0.06181,-0.0021 0.03176,0 0.114456,-0.04351 0.166997,-0.08716 l 0.213122,-0.177034 c 0.03473,-0.02372 -0.03231,-0.05858 -0.0491,-0.05544 -2.48e-4,7.2e-5 -0.0013,3.53e-4 -0.0016,4.46e-4 l -0.139555,0.08495 v -0.867798 c 0,-0.06776 -0.01185,-0.101936 -0.03515,-0.101936 h -5.17e-4 -5.16e-4 -5.17e-4 c -5.75e-4,1.1e-5 -0.0014,-8.4e-5 -0.0021,0 z m 4.961442,0.0652 c -0.07209,0.0074 -0.408438,-0.0193 -0.512726,0.02442 -0.105177,0.114874 -0.03733,0.139344 0.03606,0.182206 0.276776,0.161645 0.434167,0.104618 0.434167,0.104618 0,0 -0.212571,-0.09126 -0.207262,-0.144856 0.0053,-0.0536 0.186356,-0.04739 0.218116,-0.04739 0.139728,0 0.131136,0.04403 0.137488,0.263782 -0.206471,0.104329 -0.324951,0.15911 -0.455877,0.330397 -0.02964,0.04944 -0.05634,0.171457 -0.05634,0.219074 0,0.06227 0.02123,0.114361 0.06357,0.15648 0.04446,0.04029 0.09926,0.06035 0.164881,0.06035 0.07409,0 0.122985,-0.0073 0.146272,-0.02191 0.11644,-0.07325 0.189513,-0.117241 0.219152,-0.131891 0.01905,0 0.06447,0.02819 0.136452,0.08495 0.0063,0.0055 0.03497,0.01574 0.0858,0.0304 0.05081,0.01465 0.0834,0.02191 0.09821,0.02191 0.03388,0 0.06152,-0.0073 0.0827,-0.02191 l 0.092,-0.09344 c -0.08892,-0.03479 -0.162782,-0.066 -0.192421,-0.09896 -0.02752,-0.03479 -0.0092,-0.07441 -0.0092,-0.103712 l -0.04701,-0.336963 c -1.85e-4,-0.05098 0.01191,-0.276477 -0.06099,-0.403814 -0.136922,-0.143153 -0.388616,-0.369643 -0.373043,-0.07376 z m -1.623547,-0.10767 C 21.60752,66.06883 21.06174,66.39285 21.06174,66.39285 20.99188,66.3196 20.920772,66.272204 20.848791,66.250229 c -0.09104,0.03479 -0.159653,0.08219 -0.206229,0.142621 0.114322,0.09706 0.139924,0.189857 0.191545,0.295182 0.05759,0.1175 0.105129,0.233202 0.129359,0.370634 0.01796,0.101867 -0.178749,0.372262 -0.178749,0.372262 0,0 0.202548,0.04917 0.278947,-0.03969 0.195284,-0.227142 0.0043,-0.882965 0.0043,-0.882965 l 0.146273,-0.07377 c 0.04023,-0.02197 0.08022,-0.03308 0.12043,-0.03308 0.02329,0 0.0455,0.0098 0.06667,0.02995 0.02117,0.01832 0.04044,0.04393 0.05737,0.0769 0.01693,0.03296 0.02926,0.0714 0.03773,0.11535 0.0085,0.04395 0.01195,0.09094 0.0098,0.140385 l -0.02843,0.653643 0.263085,-0.101489 0.02222,-0.823983 0.111643,-0.0608 c 0.02964,-0.02015 0.06517,-0.02995 0.107508,-0.02995 0.07198,0 0.12729,0.03929 0.165398,0.118032 0.03811,0.07875 0.05292,0.189346 0.04445,0.332186 l -0.03205,0.477937 c -0.0043,0.04395 0.01945,0.06617 0.07029,0.06617 0.01481,0 0.09668,-0.02886 0.230005,-0.08673 0.116718,-0.05066 0.109173,-0.08342 0.142877,-0.141312 0.02081,-0.03574 0.01161,-0.05764 0.03233,-0.119792 0.0098,-0.02929 -0.128693,0.13504 -0.164362,0.108644 -0.07812,-0.05781 -0.03144,4.58e-4 -0.03153,-0.255291 -1.2e-5,-0.03483 0.0031,-0.06852 0.0031,-0.101489 0.0021,-0.03479 0.0056,-0.07067 0.0098,-0.107301 0.0021,-0.03113 0.0031,-0.05505 0.0031,-0.07153 0.0021,-0.01648 0.0031,-0.02629 0.0031,-0.02995 0,-0.151995 -0.07306,-0.271154 -0.219151,-0.357223 -0.03176,-0.02015 -0.102667,-0.02803 -0.120426,-0.02012 l -0.365425,0.16274 c -0.0023,0.0043 -0.407366,-0.164186 -0.273885,-0.23747 z m -2.742982,0.119371 c 0.07621,0 0.300976,0.05901 0.360255,0.154246 -0.151127,0.05407 -0.134697,0.04042 -0.204145,0.154451 0.09541,-0.0029 0.187301,0.196672 0.187301,0.196672 7.8e-5,-1.8e-4 -0.07545,0.03 -0.165534,0.153541 -0.07917,0.09838 -0.30472,0.01356 -0.392586,-0.07386 -0.08403,-0.08361 -0.05368,-0.222781 -0.02866,-0.33143 0.01491,-0.06473 0.0694,-0.12544 0.103279,-0.176716 0.03388,-0.05128 0.08079,-0.0769 0.140072,-0.0769 z m 7.822224,0.02995 c 0.01143,-3.02e-4 0.02305,0.0032 0.03463,0.01118 0.01983,0.01373 0.057,0.01837 0.09511,0.05499 0.04023,0.0348 0.06047,0.05957 0.06047,0.07421 0,0.01832 -0.01775,0.03753 -0.05375,0.05767 l -0.276523,0.137256 c 0.0043,-0.04761 0.01069,-0.0916 0.01912,-0.131892 0.01059,-0.04212 0.02094,-0.08056 0.03153,-0.115348 0.01158,-0.04007 0.0486,-0.087 0.08942,-0.08808 z m -3.312594,0.541424 c 0.02038,0 0.03722,7.81e-4 0.03722,0.0067 v 4.47e-4 4.47e-4 h 5.16e-4 v 4.47e-4 4.47e-4 h 5.17e-4 l 5.17e-4,4.47e-4 v 4.47e-4 c 0.0036,0.0055 0.0057,0.02171 0.0057,0.04828 v 0.23651 c 0,0.02564 -0.0247,0.05211 -0.0734,0.07958 -0.0487,0.02563 -0.09065,0.03845 -0.126632,0.03845 -0.08469,0 -0.127149,-0.03929 -0.127149,-0.118031 0,-0.06409 0.02024,-0.117492 0.06047,-0.159611 0.07834,-0.08973 0.152389,-0.134573 0.222253,-0.134573 z m -3.993282,0.671527 c 0.08308,-0.0041 0.196116,0.10752 0.187623,0.179281 -0.05792,0.489238 -0.723156,-0.390541 -0.187597,-0.17917 z m -0.413576,0.04438 c 0.138878,0.100496 0.203523,0.306936 0.210476,0.469232 0.0042,0.09851 -0.08284,0.171995 -0.209869,0.171995 -0.07409,0 -0.106692,-0.01727 -0.163853,-0.03554 -0.05716,-0.01648 -0.106052,-0.03956 -0.146273,-0.06885 -0.03811,-0.0293 -0.06772,-0.06432 -0.0889,-0.104619 -0.105122,-0.190978 0.198339,-0.453037 0.236723,-0.449043 0,0 0.117795,-0.01494 0.161696,0.01682 z" />
  </g>
</svg>
